<?xml version="1.0" encoding="iso-8859-1"?>
<!-- Generator: Adobe Illustrator 19.0.0, SVG Export Plug-In . SVG Version: 6.00 Build 0)  -->
<svg xmlns="http://www.w3.org/2000/svg" xmlns:xlink="http://www.w3.org/1999/xlink" version="1.1" id="Layer_1" x="0px" y="0px" viewBox="0 0 512.001 512.001" style="enable-background:new 0 0 512.001 512.001;" xml:space="preserve">
<g>
	<g>
		<path d="M339.856,234.176c-0.194-0.956-0.478-1.897-0.851-2.793c-0.373-0.911-0.836-1.777-1.374-2.584    c-0.553-0.821-1.18-1.583-1.867-2.27c-0.687-0.687-1.449-1.314-2.27-1.852c-0.806-0.538-1.673-1.001-2.584-1.374    c-0.896-0.373-1.835-0.657-2.793-0.851c-1.926-0.388-3.911-0.388-5.823,0c-0.957,0.194-1.898,0.478-2.793,0.851    c-0.911,0.373-1.777,0.836-2.584,1.374c-0.821,0.538-1.583,1.165-2.27,1.852c-0.687,0.687-1.314,1.449-1.852,2.27    c-0.536,0.806-1.001,1.673-1.374,2.584c-0.373,0.896-0.672,1.837-0.851,2.793c-0.194,0.956-0.297,1.941-0.297,2.912    c0,0.971,0.103,1.956,0.297,2.912c0.179,0.956,0.478,1.897,0.851,2.793c0.373,0.911,0.838,1.777,1.374,2.584    c0.538,0.821,1.165,1.583,1.852,2.27c0.687,0.687,1.449,1.314,2.27,1.852c0.806,0.538,1.673,1.001,2.584,1.374    c0.896,0.373,1.835,0.672,2.793,0.851c0.956,0.194,1.941,0.299,2.912,0.299c0.969,0,1.956-0.105,2.911-0.299    c0.957-0.179,1.898-0.478,2.793-0.851c0.911-0.373,1.777-0.836,2.584-1.374c0.821-0.538,1.583-1.165,2.27-1.852    c0.687-0.687,1.314-1.449,1.867-2.27c0.538-0.806,1.001-1.673,1.374-2.584c0.373-0.896,0.657-1.837,0.851-2.793    c0.194-0.956,0.284-1.941,0.284-2.912C340.14,236.117,340.049,235.131,339.856,234.176z"/>
	</g>
</g>
<g>
	<g>
		<path d="M490.129,21.854c-29.115-29.114-76.487-29.114-105.599,0l-63.36,63.359c-2.8,2.8-4.374,6.599-4.374,10.56    c0,3.96,1.574,7.76,4.374,10.56l0.892,0.89L3.487,487.458c-4.97,5.932-4.585,14.679,0.887,20.15    c2.902,2.903,6.726,4.374,10.563,4.374c3.396,0,6.802-1.153,9.588-3.487L300.323,277.42c6.322-5.297,7.153-14.716,1.856-21.037    c-5.296-6.323-14.716-7.153-21.037-1.856L135.079,376.904l218.658-260.98c4.97-5.933,4.585-14.679-0.887-20.152l52.799-52.799    c17.468-17.468,45.891-17.468,63.359,0c8.463,8.462,13.122,19.713,13.122,31.679c0,11.967-4.659,23.218-13.122,31.679    l-52.797,52.799c-5.475-5.473-14.219-5.859-20.15-0.887l-45.967,38.513c-6.322,5.297-7.153,14.716-1.856,21.037    c5.296,6.322,14.716,7.152,21.037,1.856l35.486-29.731l0.89,0.89c2.8,2.8,6.599,4.374,10.56,4.374s7.758-1.574,10.56-4.374    l63.36-63.36c14.102-14.104,21.871-32.855,21.871-52.799C512,54.708,504.232,35.957,490.129,21.854z"/>
	</g>
</g>
<g>
	<g>
		<path d="M447.89,64.093c-5.833-5.832-15.286-5.832-21.121,0l-42.239,42.239c-5.832,5.832-5.832,15.288,0,21.121    c2.917,2.917,6.738,4.374,10.56,4.374c3.822,0,7.645-1.459,10.561-4.374l42.239-42.239    C453.721,79.382,453.721,69.926,447.89,64.093z"/>
	</g>
</g>
<g>
</g>
<g>
</g>
<g>
</g>
<g>
</g>
<g>
</g>
<g>
</g>
<g>
</g>
<g>
</g>
<g>
</g>
<g>
</g>
<g>
</g>
<g>
</g>
<g>
</g>
<g>
</g>
<g>
</g>
</svg>
